<svg xmlns="http://www.w3.org/2000/svg" version="1.1" xmlns:xlink="http://www.w3.org/1999/xlink" xmlns:svgjs="http://svgjs.dev/svgjs" width="1440" height="560" preserveAspectRatio="none" viewBox="0 0 1440 560"><g mask="url(&quot;#SvgjsMask1000&quot;)" fill="none"><rect width="1440" height="560" x="0" y="0" fill="#0e2a47"></rect><path d="M23.79 194.29L88.74 231.79L88.74 306.79L23.79 344.29L-41.16 306.79L-41.16 231.79zM348.56 81.79L413.51 119.29L413.51 194.29L348.56 231.79L283.61 194.29L283.61 119.29zM283.61 194.29L348.56 231.79L348.56 306.79L283.61 344.29L218.65 306.79L218.65 231.79zM413.51 419.29L478.47 456.79L478.47 531.79L413.51 569.29L348.56 531.79L348.56 456.79zM478.47 531.79L543.42 569.29L543.42 644.29L478.47 681.79L413.51 644.29L413.51 569.29zM543.42 -30.71L608.37 6.79L608.37 81.79L543.42 119.29L478.47 81.79L478.47 6.79zM608.37 81.79L673.33 119.29L673.33 194.29L608.37 231.79L543.42 194.29L543.42 119.29zM543.42 194.29L608.37 231.79L608.37 306.79L543.42 344.29L478.47 306.79L478.47 231.79zM673.33 194.29L738.28 231.79L738.28 306.79L673.33 344.29L608.37 306.79L608.37 231.79zM868.19 81.79L933.14 119.29L933.14 194.29L868.19 231.79L803.23 194.29L803.23 119.29zM803.23 419.29L868.19 456.79L868.19 531.79L803.23 569.29L738.28 531.79L738.28 456.79zM998.1 81.79L1063.05 119.29L1063.05 194.29L998.1 231.79L933.14 194.29L933.14 119.29zM998.1 306.79L1063.05 344.29L1063.05 419.29L998.1 456.79L933.14 419.29L933.14 344.29zM1128 306.79L1192.96 344.29L1192.96 419.29L1128 456.79L1063.05 419.29L1063.05 344.29zM1063.05 419.29L1128 456.79L1128 531.79L1063.05 569.29L998.1 531.79L998.1 456.79zM1257.91 531.79L1322.86 569.29L1322.86 644.29L1257.91 681.79L1192.96 644.29L1192.96 569.29zM1452.77 -30.71L1517.73 6.79L1517.73 81.79L1452.77 119.29L1387.82 81.79L1387.82 6.79zM1517.73 81.79L1582.68 119.29L1582.68 194.29L1517.73 231.79L1452.77 194.29L1452.77 119.29z" stroke="#03305d" stroke-width="2"></path><path d="M16.29 194.29 a7.5 7.5 0 1 0 15 0 a7.5 7.5 0 1 0 -15 0zM81.24 231.79 a7.5 7.5 0 1 0 15 0 a7.5 7.5 0 1 0 -15 0zM81.24 306.79 a7.5 7.5 0 1 0 15 0 a7.5 7.5 0 1 0 -15 0zM16.29 344.29 a7.5 7.5 0 1 0 15 0 a7.5 7.5 0 1 0 -15 0zM-48.66 306.79 a7.5 7.5 0 1 0 15 0 a7.5 7.5 0 1 0 -15 0zM-48.66 231.79 a7.5 7.5 0 1 0 15 0 a7.5 7.5 0 1 0 -15 0zM341.06 81.79 a7.5 7.5 0 1 0 15 0 a7.5 7.5 0 1 0 -15 0zM406.01 119.29 a7.5 7.5 0 1 0 15 0 a7.5 7.5 0 1 0 -15 0zM406.01 194.29 a7.5 7.5 0 1 0 15 0 a7.5 7.5 0 1 0 -15 0zM341.06 231.79 a7.5 7.5 0 1 0 15 0 a7.5 7.5 0 1 0 -15 0zM276.11 194.29 a7.5 7.5 0 1 0 15 0 a7.5 7.5 0 1 0 -15 0zM276.11 119.29 a7.5 7.5 0 1 0 15 0 a7.5 7.5 0 1 0 -15 0zM341.06 306.79 a7.5 7.5 0 1 0 15 0 a7.5 7.5 0 1 0 -15 0zM276.11 344.29 a7.5 7.5 0 1 0 15 0 a7.5 7.5 0 1 0 -15 0zM211.15 306.79 a7.5 7.5 0 1 0 15 0 a7.5 7.5 0 1 0 -15 0zM211.15 231.79 a7.5 7.5 0 1 0 15 0 a7.5 7.5 0 1 0 -15 0zM406.01 419.29 a7.5 7.5 0 1 0 15 0 a7.5 7.5 0 1 0 -15 0zM470.97 456.79 a7.5 7.5 0 1 0 15 0 a7.5 7.5 0 1 0 -15 0zM470.97 531.79 a7.5 7.5 0 1 0 15 0 a7.5 7.5 0 1 0 -15 0zM406.01 569.29 a7.5 7.5 0 1 0 15 0 a7.5 7.5 0 1 0 -15 0zM341.06 531.79 a7.5 7.5 0 1 0 15 0 a7.5 7.5 0 1 0 -15 0zM341.06 456.79 a7.5 7.5 0 1 0 15 0 a7.5 7.5 0 1 0 -15 0zM535.92 569.29 a7.5 7.5 0 1 0 15 0 a7.5 7.5 0 1 0 -15 0zM535.92 644.29 a7.5 7.5 0 1 0 15 0 a7.5 7.5 0 1 0 -15 0zM470.97 681.79 a7.5 7.5 0 1 0 15 0 a7.5 7.5 0 1 0 -15 0zM406.01 644.29 a7.5 7.5 0 1 0 15 0 a7.5 7.5 0 1 0 -15 0zM535.92 -30.71 a7.5 7.5 0 1 0 15 0 a7.5 7.5 0 1 0 -15 0zM600.87 6.79 a7.5 7.5 0 1 0 15 0 a7.5 7.5 0 1 0 -15 0zM600.87 81.79 a7.5 7.5 0 1 0 15 0 a7.5 7.5 0 1 0 -15 0zM535.92 119.29 a7.5 7.5 0 1 0 15 0 a7.5 7.5 0 1 0 -15 0zM470.97 81.79 a7.5 7.5 0 1 0 15 0 a7.5 7.5 0 1 0 -15 0zM470.97 6.79 a7.5 7.5 0 1 0 15 0 a7.5 7.5 0 1 0 -15 0zM665.83 119.29 a7.5 7.5 0 1 0 15 0 a7.5 7.5 0 1 0 -15 0zM665.83 194.29 a7.5 7.5 0 1 0 15 0 a7.5 7.5 0 1 0 -15 0zM600.87 231.79 a7.5 7.5 0 1 0 15 0 a7.5 7.5 0 1 0 -15 0zM535.92 194.29 a7.5 7.5 0 1 0 15 0 a7.5 7.5 0 1 0 -15 0zM600.87 306.79 a7.5 7.5 0 1 0 15 0 a7.5 7.5 0 1 0 -15 0zM535.92 344.29 a7.5 7.5 0 1 0 15 0 a7.5 7.5 0 1 0 -15 0zM470.97 306.79 a7.5 7.5 0 1 0 15 0 a7.5 7.5 0 1 0 -15 0zM470.97 231.79 a7.5 7.5 0 1 0 15 0 a7.5 7.5 0 1 0 -15 0zM730.78 231.79 a7.5 7.5 0 1 0 15 0 a7.5 7.5 0 1 0 -15 0zM730.78 306.79 a7.5 7.5 0 1 0 15 0 a7.5 7.5 0 1 0 -15 0zM665.83 344.29 a7.5 7.5 0 1 0 15 0 a7.5 7.5 0 1 0 -15 0zM860.69 81.79 a7.5 7.5 0 1 0 15 0 a7.5 7.5 0 1 0 -15 0zM925.64 119.29 a7.5 7.5 0 1 0 15 0 a7.5 7.5 0 1 0 -15 0zM925.64 194.29 a7.5 7.5 0 1 0 15 0 a7.5 7.5 0 1 0 -15 0zM860.69 231.79 a7.5 7.5 0 1 0 15 0 a7.5 7.5 0 1 0 -15 0zM795.73 194.29 a7.5 7.5 0 1 0 15 0 a7.5 7.5 0 1 0 -15 0zM795.73 119.29 a7.5 7.5 0 1 0 15 0 a7.5 7.5 0 1 0 -15 0zM795.73 419.29 a7.5 7.5 0 1 0 15 0 a7.5 7.5 0 1 0 -15 0zM860.69 456.79 a7.5 7.5 0 1 0 15 0 a7.5 7.5 0 1 0 -15 0zM860.69 531.79 a7.5 7.5 0 1 0 15 0 a7.5 7.5 0 1 0 -15 0zM795.73 569.29 a7.5 7.5 0 1 0 15 0 a7.5 7.5 0 1 0 -15 0zM730.78 531.79 a7.5 7.5 0 1 0 15 0 a7.5 7.5 0 1 0 -15 0zM730.78 456.79 a7.5 7.5 0 1 0 15 0 a7.5 7.5 0 1 0 -15 0zM990.6 81.79 a7.5 7.5 0 1 0 15 0 a7.5 7.5 0 1 0 -15 0zM1055.55 119.29 a7.5 7.5 0 1 0 15 0 a7.5 7.5 0 1 0 -15 0zM1055.55 194.29 a7.5 7.5 0 1 0 15 0 a7.5 7.5 0 1 0 -15 0zM990.6 231.79 a7.5 7.5 0 1 0 15 0 a7.5 7.5 0 1 0 -15 0zM990.6 306.79 a7.5 7.5 0 1 0 15 0 a7.5 7.5 0 1 0 -15 0zM1055.55 344.29 a7.5 7.5 0 1 0 15 0 a7.5 7.5 0 1 0 -15 0zM1055.55 419.29 a7.5 7.5 0 1 0 15 0 a7.5 7.5 0 1 0 -15 0zM990.6 456.79 a7.5 7.5 0 1 0 15 0 a7.5 7.5 0 1 0 -15 0zM925.64 419.29 a7.5 7.5 0 1 0 15 0 a7.5 7.5 0 1 0 -15 0zM925.64 344.29 a7.5 7.5 0 1 0 15 0 a7.5 7.5 0 1 0 -15 0zM1120.5 306.79 a7.5 7.5 0 1 0 15 0 a7.5 7.5 0 1 0 -15 0zM1185.46 344.29 a7.5 7.5 0 1 0 15 0 a7.5 7.5 0 1 0 -15 0zM1185.46 419.29 a7.5 7.5 0 1 0 15 0 a7.5 7.5 0 1 0 -15 0zM1120.5 456.79 a7.5 7.5 0 1 0 15 0 a7.5 7.5 0 1 0 -15 0zM1120.5 531.79 a7.5 7.5 0 1 0 15 0 a7.5 7.5 0 1 0 -15 0zM1055.55 569.29 a7.5 7.5 0 1 0 15 0 a7.5 7.5 0 1 0 -15 0zM990.6 531.79 a7.5 7.5 0 1 0 15 0 a7.5 7.5 0 1 0 -15 0zM1250.41 531.79 a7.5 7.5 0 1 0 15 0 a7.5 7.5 0 1 0 -15 0zM1315.36 569.29 a7.5 7.5 0 1 0 15 0 a7.5 7.5 0 1 0 -15 0zM1315.36 644.29 a7.5 7.5 0 1 0 15 0 a7.5 7.5 0 1 0 -15 0zM1250.41 681.79 a7.5 7.5 0 1 0 15 0 a7.5 7.5 0 1 0 -15 0zM1185.46 644.29 a7.5 7.5 0 1 0 15 0 a7.5 7.5 0 1 0 -15 0zM1185.46 569.29 a7.5 7.5 0 1 0 15 0 a7.5 7.5 0 1 0 -15 0zM1445.27 -30.71 a7.5 7.5 0 1 0 15 0 a7.5 7.5 0 1 0 -15 0zM1510.23 6.79 a7.5 7.5 0 1 0 15 0 a7.5 7.5 0 1 0 -15 0zM1510.23 81.79 a7.5 7.5 0 1 0 15 0 a7.5 7.5 0 1 0 -15 0zM1445.27 119.29 a7.5 7.5 0 1 0 15 0 a7.5 7.5 0 1 0 -15 0zM1380.32 81.79 a7.5 7.5 0 1 0 15 0 a7.5 7.5 0 1 0 -15 0zM1380.32 6.79 a7.5 7.5 0 1 0 15 0 a7.5 7.5 0 1 0 -15 0zM1575.18 119.29 a7.5 7.5 0 1 0 15 0 a7.5 7.5 0 1 0 -15 0zM1575.18 194.29 a7.5 7.5 0 1 0 15 0 a7.5 7.5 0 1 0 -15 0zM1510.23 231.79 a7.5 7.5 0 1 0 15 0 a7.5 7.5 0 1 0 -15 0zM1445.27 194.29 a7.5 7.5 0 1 0 15 0 a7.5 7.5 0 1 0 -15 0z" fill="#03305d"></path><path d="M30.99 -41.38L74.29 -16.38L74.29 33.62L30.99 58.62L-12.31 33.62L-12.31 -16.38zM30.99 258.62L74.29 283.62L74.29 333.62L30.99 358.62L-12.31 333.62L-12.31 283.62zM30.99 408.62L74.29 433.62L74.29 483.62L30.99 508.62L-12.31 483.62L-12.31 433.62zM160.9 33.62L204.2 58.62L204.2 108.62L160.9 133.62L117.59 108.62L117.59 58.62zM204.2 108.62L247.5 133.62L247.5 183.62L204.2 208.62L160.9 183.62L160.9 133.62zM247.5 333.62L290.81 358.62L290.81 408.62L247.5 433.62L204.2 408.62L204.2 358.62zM204.2 408.62L247.5 433.62L247.5 483.62L204.2 508.62L160.9 483.62L160.9 433.62zM377.41 -41.38L420.71 -16.38L420.71 33.62L377.41 58.62L334.11 33.62L334.11 -16.38zM420.71 333.62L464.02 358.62L464.02 408.62L420.71 433.62L377.41 408.62L377.41 358.62zM550.62 -41.38L593.92 -16.38L593.92 33.62L550.62 58.62L507.32 33.62L507.32 -16.38zM593.92 33.62L637.23 58.62L637.23 108.62L593.92 133.62L550.62 108.62L550.62 58.62zM550.62 108.62L593.92 133.62L593.92 183.62L550.62 208.62L507.32 183.62L507.32 133.62zM593.92 483.62L637.23 508.62L637.23 558.62L593.92 583.62L550.62 558.62L550.62 508.62zM680.53 183.62L723.83 208.62L723.83 258.62L680.53 283.62L637.23 258.62L637.23 208.62zM637.23 258.62L680.53 283.62L680.53 333.62L637.23 358.62L593.92 333.62L593.92 283.62zM680.53 333.62L723.83 358.62L723.83 408.62L680.53 433.62L637.23 408.62L637.23 358.62zM723.83 108.62L767.13 133.62L767.13 183.62L723.83 208.62L680.53 183.62L680.53 133.62zM767.13 183.62L810.44 208.62L810.44 258.62L767.13 283.62L723.83 258.62L723.83 208.62zM723.83 258.62L767.13 283.62L767.13 333.62L723.83 358.62L680.53 333.62L680.53 283.62zM767.13 483.62L810.44 508.62L810.44 558.62L767.13 583.62L723.83 558.62L723.83 508.62zM810.44 108.62L853.74 133.62L853.74 183.62L810.44 208.62L767.13 183.62L767.13 133.62zM853.74 183.62L897.04 208.62L897.04 258.62L853.74 283.62L810.44 258.62L810.44 208.62zM853.74 483.62L897.04 508.62L897.04 558.62L853.74 583.62L810.44 558.62L810.44 508.62zM940.34 33.62L983.65 58.62L983.65 108.62L940.34 133.62L897.04 108.62L897.04 58.62zM940.34 183.62L983.65 208.62L983.65 258.62L940.34 283.62L897.04 258.62L897.04 208.62zM897.04 408.62L940.34 433.62L940.34 483.62L897.04 508.62L853.74 483.62L853.74 433.62zM940.34 483.62L983.65 508.62L983.65 558.62L940.34 583.62L897.04 558.62L897.04 508.62zM983.65 108.62L1026.95 133.62L1026.95 183.62L983.65 208.62L940.34 183.62L940.34 133.62zM983.65 408.62L1026.95 433.62L1026.95 483.62L983.65 508.62L940.34 483.62L940.34 433.62zM1070.25 408.62L1113.55 433.62L1113.55 483.62L1070.25 508.62L1026.95 483.62L1026.95 433.62zM1113.55 483.62L1156.86 508.62L1156.86 558.62L1113.55 583.62L1070.25 558.62L1070.25 508.62zM1200.16 33.62L1243.46 58.62L1243.46 108.62L1200.16 133.62L1156.86 108.62L1156.86 58.62zM1200.16 333.62L1243.46 358.62L1243.46 408.62L1200.16 433.62L1156.86 408.62L1156.86 358.62zM1243.46 258.62L1286.76 283.62L1286.76 333.62L1243.46 358.62L1200.16 333.62L1200.16 283.62zM1286.76 333.62L1330.07 358.62L1330.07 408.62L1286.76 433.62L1243.46 408.62L1243.46 358.62zM1373.37 33.62L1416.67 58.62L1416.67 108.62L1373.37 133.62L1330.07 108.62L1330.07 58.62zM1330.07 408.62L1373.37 433.62L1373.37 483.62L1330.07 508.62L1286.76 483.62L1286.76 433.62zM1416.67 -41.38L1459.97 -16.38L1459.97 33.62L1416.67 58.62L1373.37 33.62L1373.37 -16.38zM1459.97 183.62L1503.28 208.62L1503.28 258.62L1459.97 283.62L1416.67 258.62L1416.67 208.62zM1416.67 258.62L1459.97 283.62L1459.97 333.62L1416.67 358.62L1373.37 333.62L1373.37 283.62zM1459.97 333.62L1503.28 358.62L1503.28 408.62L1459.97 433.62L1416.67 408.62L1416.67 358.62zM1416.67 408.62L1459.97 433.62L1459.97 483.62L1416.67 508.62L1373.37 483.62L1373.37 433.62z" stroke="rgba(6, 80, 156, 0.93)" stroke-width="2"></path></g><defs><mask id="SvgjsMask1000"><rect width="1440" height="560" fill="#ffffff"></rect></mask></defs></svg>